<svg width="64" height="64" viewBox="0 0 64 64" fill="none" xmlns="http://www.w3.org/2000/svg">
<path d="M13.7622 6.46248L4.22475 6.49998L3.27475 7.34998C2.76225 7.81248 2.26225 8.36248 2.17475 8.58748C1.97475 9.06248 1.79975 12.275 1.62475 18.875C1.48725 24.0875 1.44975 41.6 1.58725 43.225C1.64975 44.15 1.69975 44.3125 2.02475 44.625C2.21225 44.825 2.69975 45.1375 3.09975 45.3375L3.81225 45.6875L13.2497 45.75L22.6872 45.8125L22.8997 46.625C23.2872 48.125 23.1747 49.5 22.4997 51.275C22.2622 51.9125 22.1872 52 21.8372 52.05C18.4872 52.5375 17.6622 52.75 17.1122 53.2625C16.5497 53.7875 16.6122 54.275 17.3122 54.9625C17.6247 55.2625 18.1122 55.625 18.4122 55.75C19.6372 56.2875 23.3872 57.0875 26.1872 57.4C28.4372 57.65 34.7872 57.6125 37.3747 57.3375C40.3997 57.0125 41.8872 56.7625 42.3622 56.525C43.2872 56.0625 43.5872 55.0625 42.9997 54.425C41.9997 53.375 38.6622 52.3 35.5372 52.05L34.4997 51.9625L34.3747 51.5125C34.0122 50.25 34.0997 47.975 34.5622 46.4125L34.7622 45.75H38.6622H42.5622L42.5247 47.05C42.4497 49.3625 42.8497 51.0125 43.7622 52.0375C44.4247 52.8 45.2997 53.2 46.6247 53.3625C47.9622 53.5125 59.5622 53.4 60.4747 53.225C61.3122 53.075 62.0247 52.4375 62.2622 51.625C62.4122 51.1625 62.4372 48.45 62.4372 36.875V22.6875L62.1747 22.1875C61.5872 21.0875 61.0122 20.8625 58.6622 20.775L56.8747 20.7125L56.8622 20.325C56.8497 20.1125 56.8122 16.9875 56.7622 13.4L56.6872 6.84998L56.3872 6.61248C56.0997 6.37498 55.6747 6.37498 39.6997 6.39998C30.6872 6.42498 19.0122 6.44998 13.7622 6.46248ZM55.1622 10.15C55.2122 11.3875 55.2497 14.2875 55.2497 16.5875V20.75H54.1872H53.1372L53.0997 15.7375C53.0622 10.775 53.0622 10.725 52.7872 10.5125C52.5372 10.3 51.1997 10.2875 30.4747 10.2C16.3122 10.15 8.31225 10.1625 8.09975 10.2375C7.92475 10.3 7.74975 10.45 7.71225 10.55C7.24975 11.7375 6.84975 28.55 7.11225 35.8125C7.26225 39.975 7.41225 41.65 7.68725 42.075L7.86225 42.35L25.2372 42.275L42.6247 42.2125V43.225V44.25H23.8122H4.99975V42.9625C4.98725 39.7875 5.26225 12.8 5.33725 10.5375L5.39975 7.99998L22.6747 7.96248C32.1622 7.94998 43.3497 7.92498 47.5122 7.89998L55.0872 7.87498L55.1622 10.15ZM40.8372 11.7875L51.4747 11.8125L51.5497 12.175C51.5872 12.375 51.6247 14.3875 51.6247 16.6625V20.7875L49.5372 20.7C47.2122 20.6125 45.7497 20.7375 44.6872 21.1375C43.7997 21.4625 43.4247 21.775 43.0622 22.5C42.4997 23.6 42.4497 24.3375 42.6122 28.7625C42.6872 30.9875 42.7497 34.575 42.7497 36.7125V40.625H36.8497C33.5997 40.625 26.0122 40.6875 19.9997 40.75C12.2997 40.8375 9.04975 40.825 8.98725 40.7375C8.87475 40.5375 8.72475 37.5625 8.63725 33.3125C8.51225 27 8.76225 14.6625 9.07475 12.2875L9.13725 11.7625L10.7872 11.7125C11.6997 11.6875 16.4372 11.6875 21.3122 11.7125C26.1997 11.75 34.9747 11.775 40.8372 11.7875ZM58.4747 22.325C59.8247 22.4 59.9122 22.425 60.3247 22.775C60.7372 23.1375 60.9997 23.7625 60.9997 24.3875V24.7125L55.9122 24.7875C53.1247 24.8375 49.4872 24.875 47.8372 24.875H44.8372L44.9122 24.0625C45.0372 22.7625 45.3622 22.4 46.5997 22.25C47.3747 22.15 56.1622 22.2125 58.4747 22.325ZM59.9747 26.3375L60.9997 26.4125V35.425C60.9997 40.3875 60.9622 45.05 60.9247 45.8125L60.8372 47.1875L52.8622 47.2L44.8747 47.225V36.8V26.375L51.1622 26.3375C54.6122 26.325 57.7747 26.3 58.1872 26.275C58.5997 26.2625 59.3997 26.2875 59.9747 26.3375ZM33.0622 45.9875C32.7997 46.8125 32.6247 48.125 32.6247 49.2625C32.6247 51.45 33.1872 53.7875 33.8247 54.2C34.2497 54.4875 34.7372 54.3375 34.8872 53.875C35.0122 53.55 35.0622 53.525 35.4747 53.575C36.3622 53.7 38.4372 54.025 38.4747 54.0625C38.5497 54.125 36.3622 54.5125 34.8122 54.7C30.3997 55.225 22.1497 54.9625 19.6122 54.2125L19.0622 54.0375L19.9997 53.8875C20.5122 53.8 21.0872 53.7125 21.2872 53.675C21.5372 53.625 21.6247 53.65 21.6247 53.8C21.6247 54.075 22.1622 54.3 22.5622 54.2C22.8372 54.125 22.9997 53.8875 23.4997 52.8375C23.8372 52.1375 24.2247 51.0875 24.3622 50.5C24.6622 49.25 24.7122 47.375 24.4497 46.4L24.2872 45.75H28.7122C32.9747 45.75 33.1372 45.7625 33.0622 45.9875ZM60.8747 49.9375C60.8747 51.025 60.8497 51.1625 60.5747 51.4375C60.3747 51.6375 60.0747 51.75 59.6122 51.8125C59.2372 51.85 56.0997 51.875 52.6247 51.85C46.5997 51.8125 46.2872 51.8 45.8122 51.5625C45.1872 51.25 44.9247 50.725 44.8247 49.5875L44.7372 48.75H52.8122H60.8747V49.9375Z" fill="white"/>
<path d="M27.3875 15.4874C27.05 15.8249 27.05 16.1874 27.425 16.5624L27.7125 16.8499L27.1375 16.9374C26.125 17.0874 24.0375 17.8374 22.625 18.5624C21.075 19.3624 19.425 20.5374 18.2875 21.6624C17.6375 22.2874 17.5 22.4999 17.5 22.8374C17.5 23.3374 17.95 23.6999 18.4 23.5624C18.5625 23.5124 19.05 23.1249 19.5 22.6874C21.1875 21.0499 23.4125 19.7249 25.8 18.9374C26.4875 18.7124 27.2125 18.4874 27.4125 18.4499C27.725 18.3749 27.75 18.3874 27.675 18.6749C27.5125 19.3249 27.975 19.8499 28.575 19.6999C28.8625 19.6249 30.225 17.9624 30.525 17.3124C30.725 16.8624 30.4 16.4499 29.35 15.8374C28.3 15.2249 27.75 15.1249 27.3875 15.4874Z" fill="white"/>
<path d="M34.6248 17.4749L34.3623 17.6874L34.3998 26.8249C34.4248 34.3999 34.4623 35.9999 34.6123 36.1749C34.7623 36.3499 35.0498 36.3749 36.8623 36.3499L38.9373 36.3124L39.0873 35.9999C39.1998 35.7624 39.2123 33.4874 39.1623 26.6999C39.0873 18.1874 39.0748 17.6999 38.8498 17.4749C38.6498 17.2749 38.3998 17.2499 36.7623 17.2499C35.1748 17.2499 34.8623 17.2874 34.6248 17.4749ZM37.6248 26.8124V34.8749H36.8373H36.0373L35.9623 30.4624C35.9123 28.0499 35.8748 24.4124 35.8748 22.3999V18.7499H36.7498H37.6248V26.8124Z" fill="white"/>
<path d="M28.075 22.7003C27.9 22.8753 27.875 23.6378 27.875 29.3128C27.875 35.3253 27.8875 35.7378 28.1 36.0003C28.325 36.2753 28.4 36.2878 30.3125 36.2628C31.5125 36.2503 32.3625 36.1878 32.4625 36.1003C32.5875 36.0003 32.625 34.6253 32.625 29.5128C32.625 23.8753 32.6 23.0253 32.425 22.7753C32.2375 22.5128 32.1625 22.5003 30.25 22.5003C28.6125 22.5003 28.2375 22.5378 28.075 22.7003ZM31.125 29.3753V34.7503H30.325C29.7125 34.7503 29.5125 34.7003 29.45 34.5503C29.4125 34.4378 29.375 32.0253 29.375 29.1753V24.0003H30.25H31.125V29.3753Z" fill="white"/>
<path d="M15.3746 25.25C15.1246 25.5 15.1121 25.625 15.1496 30.7625C15.1871 35.8 15.1996 36.025 15.4246 36.2C15.7746 36.45 19.3496 36.45 19.6996 36.2C19.9246 36.025 19.9371 35.85 19.8996 30.725C19.8621 25.5875 19.8496 25.4375 19.5996 25.2125C19.3871 25.0375 19.0746 25 17.4871 25C15.7871 25 15.5996 25.025 15.3746 25.25ZM18.3746 30.6875V34.875H17.5871H16.7871L16.7121 32.0375C16.6621 30.4875 16.6246 28.625 16.6246 27.925V26.6375L17.4121 26.5875C17.8371 26.5625 18.2246 26.5375 18.2871 26.525C18.3371 26.5125 18.3746 28.3875 18.3746 30.6875Z" fill="white"/>
<path d="M21.775 28.4498C21.5 28.6373 21.5 28.6623 21.5 32.2498C21.5 35.3623 21.525 35.8873 21.7 36.0498C21.925 36.2873 21.8375 36.2748 24.125 36.2498C25.6375 36.2373 25.9625 36.1998 26.1 36.0248C26.2125 35.8748 26.25 34.9248 26.25 32.2873C26.25 28.9123 26.2375 28.7373 26 28.4998C25.775 28.2748 25.5875 28.2498 23.9 28.2498C22.4375 28.2498 22 28.2873 21.775 28.4498ZM24.75 32.3123V34.7498H23.875H23V32.3123V29.8748H23.875H24.75V32.3123Z" fill="white"/>
<path d="M47.337 31.6C47.0495 31.9125 47.0745 32.325 47.3745 32.625C47.612 32.8625 47.787 32.875 52.4495 32.875C55.5245 32.875 57.3495 32.825 57.512 32.75C57.787 32.6 57.8495 31.775 57.5995 31.525C57.487 31.4125 56.187 31.375 52.4995 31.375C47.8495 31.375 47.5245 31.3875 47.337 31.6Z" fill="white"/>
<path d="M46.9373 36.775C46.3998 37.075 46.3623 37.5 46.8123 37.9375C47.1123 38.25 47.1373 38.25 49.4373 38.25H51.7623L52.0748 37.925C52.3248 37.6875 52.3748 37.5375 52.3123 37.275C52.2748 37.0875 52.1748 36.875 52.1123 36.8125C51.9248 36.625 47.2498 36.5875 46.9373 36.775Z" fill="white"/>
<path d="M47.6124 41.5C47.2999 41.6875 47.2124 42.225 47.4374 42.575L47.6249 42.875H51.9249C55.9124 42.875 56.2249 42.8625 56.4124 42.65C56.7 42.3375 56.6749 41.925 56.3749 41.625C56.1375 41.3875 55.9625 41.375 51.9749 41.375C49.5624 41.375 47.7249 41.4375 47.6124 41.5Z" fill="white"/>
<path d="M52.1493 49.775C51.8993 50.025 51.9618 50.8375 52.2493 51.125C52.7618 51.6375 53.4993 51.2125 53.4993 50.3875C53.4993 49.825 52.5368 49.3875 52.1493 49.775Z" fill="white"/>
</svg>
